HIERARCHY
ROOT Pelvis
{
	OFFSET 0.000000 0.000000 0.000000
	CHANNELS 6 Xposition Yposition Zposition Xrotation Yrotation Zrotation
	JOINT LeftUpLeg_virtual
	{
		OFFSET 0.000000 0.000000 0.000000
		CHANNELS 3 Xrotation Yrotation Zrotation
		JOINT LeftUpLeg
		{
			OFFSET 18.735201 -5.666702 -4.541200
			CHANNELS 3 Xrotation Yrotation Zrotation
			JOINT LeftLeg
			{
				OFFSET -0.021200 -31.938179 0.493100
				CHANNELS 3 Xrotation Yrotation Zrotation
				JOINT LeftFoot
				{
					OFFSET 0.021200 -31.938179 -4.336299
					CHANNELS 3 Xrotation Yrotation Zrotation
					JOINT LeftToeBase
					{
						OFFSET 0.943001 -26.722000 15.023500
						CHANNELS 3 Xrotation Yrotation Zrotation
						End Site
						{
							OFFSET 0 0 0
						}
					}
				}
			}
		}
	}
	JOINT RightUpLeg_virtual
	{
		OFFSET 0.000000 0.000000 0.000000
		CHANNELS 3 Xrotation Yrotation Zrotation
		JOINT RightUpLeg
		{
			OFFSET -18.735201 -5.666702 -4.541200
			CHANNELS 3 Xrotation Yrotation Zrotation
			JOINT RightLeg
			{
				OFFSET 0.018946 -31.938133 0.493100
				CHANNELS 3 Xrotation Yrotation Zrotation
				JOINT RightFoot
				{
					OFFSET -0.018946 -31.938126 -4.336299
					CHANNELS 3 Xrotation Yrotation Zrotation
					JOINT RightToeBase
					{
						OFFSET -0.943001 -26.722004 15.023500
						CHANNELS 3 Xrotation Yrotation Zrotation
						End Site
						{
							OFFSET 0 0 0
						}
					}
				}
			}
		}
	}
	JOINT Hips_virtual
	{
		OFFSET 0.000000 0.000000 0.000000
		CHANNELS 3 Xrotation Yrotation Zrotation
		JOINT Hips
		{
			OFFSET -0.000000 -0.000000 -0.000000
			CHANNELS 3 Xrotation Yrotation Zrotation
			JOINT Spine
			{
				OFFSET 0.000000 10.199997 -0.299500
				CHANNELS 3 Xrotation Yrotation Zrotation
				JOINT Spine1
				{
					OFFSET 0.000000 11.900002 -1.516600
					CHANNELS 3 Xrotation Yrotation Zrotation
					JOINT Spine2
					{
						OFFSET 0.000000 13.600006 -2.842500
						CHANNELS 3 Xrotation Yrotation Zrotation
						JOINT Neck_virtual
						{
							OFFSET 0.000000 0.000000 0.000000
							CHANNELS 3 Xrotation Yrotation Zrotation
							JOINT Neck
							{
								OFFSET 0.000000 9.624100 -2.890100
								CHANNELS 3 Xrotation Yrotation Zrotation
								JOINT Head
								{
									OFFSET 0.000000 14.068802 -1.351900
									CHANNELS 3 Xrotation Yrotation Zrotation
									End Site
									{
										OFFSET 0 0 0
									}
								}
							}
						}
						JOINT LeftShoulder_virtual
						{
							OFFSET 0.000000 0.000000 0.000000
							CHANNELS 3 Xrotation Yrotation Zrotation
							JOINT LeftShoulder
							{
								OFFSET 15.263000 10.923401 -0.547700
								CHANNELS 3 Xrotation Yrotation Zrotation
								JOINT LeftArm
								{
									OFFSET 25.438599 -2.830597 -13.032500
									CHANNELS 3 Xrotation Yrotation Zrotation
									JOINT LeftForeArm
									{
										OFFSET 29.960503 0.000000 0.000000
										CHANNELS 3 Xrotation Yrotation Zrotation
										JOINT LeftHand
										{
											OFFSET 27.849251 0.000000 0.000000
											CHANNELS 3 Xrotation Yrotation Zrotation
											End Site
											{
												OFFSET 0 0 0
											}
										}
									}
								}
							}
						}
						JOINT RightShoulder_virtual
						{
							OFFSET 0.000000 0.000000 0.000000
							CHANNELS 3 Xrotation Yrotation Zrotation
							JOINT RightShoulder
							{
								OFFSET -15.263000 10.923401 -0.547700
								CHANNELS 3 Xrotation Yrotation Zrotation
								JOINT RightArm
								{
									OFFSET -25.438599 -2.830597 -13.032500
									CHANNELS 3 Xrotation Yrotation Zrotation
									JOINT RightForeArm
									{
										OFFSET -29.960503 0.000000 0.000000
										CHANNELS 3 Xrotation Yrotation Zrotation
										JOINT RightHand
										{
											OFFSET -27.849251 0.000000 0.000000
											CHANNELS 3 Xrotation Yrotation Zrotation
											End Site
											{
												OFFSET 0 0 0
											}
										}
									}
								}
							}
						}
					}
				}
			}
		}
	}
}
MOTION
Frames: 13
Frame Time: 0.03333333
-1.335332 133.054337 1.972092 0.000000 0.000000 0.000000 3.345800 -7.686251 -0.539893 -38.567455 8.458875 16.800915 65.834445 5.018332 -0.254123 11.698304 4.471807 -1.480873 0.000000 0.000000 0.000000 1.529567 -0.239949 1.579539 -29.064347 -4.528120 -13.540586 67.419766 -7.469262 2.471621 9.200067 -10.401899 8.808112 0.000000 0.000000 0.000000 -0.131466 -4.276196 0.400588 -1.693910 6.514879 -0.330962 -3.769859 -0.743725 0.168742 -1.889098 0.073100 -0.839139 0.000000 0.000000 0.000000 -7.291457 0.447291 -1.858170 -4.754710 0.401239 -0.111581 0.000000 0.000000 0.000000 3.898329 2.210017 2.883821 3.289090 -1.254261 19.164196 -66.655891 -21.504371 -6.010260 -16.324647 -50.737336 8.793207 0.000000 0.000000 0.000000 -0.973359 -0.820005 -4.951468 1.065748 4.129109 -20.480674 -64.901147 14.670109 -3.563655 -23.188523 53.105510 -2.493393 0.000000 0.000000 0.000000 
-0.722013 134.440125 1.800459 0.000000 0.000000 0.000000 1.823742 -9.974348 -1.272247 -40.006242 7.835071 15.812627 67.694544 3.881141 -0.287384 12.991319 3.190350 -2.569239 0.000000 0.000000 0.000000 1.498525 0.099723 2.500941 -28.690869 -4.708796 -12.330216 68.113215 -7.244213 3.043060 9.861369 -10.436106 9.748440 0.000000 0.000000 0.000000 -1.194702 -4.134913 -0.621855 -0.853176 7.059868 -1.494689 -3.973751 -0.611766 -0.333237 -2.036347 0.376142 -0.739621 0.000000 0.000000 0.000000 -7.284154 0.214117 -2.364872 -4.937540 0.511556 -0.187374 0.000000 0.000000 0.000000 3.845159 2.300804 2.663654 3.826194 0.506989 20.104264 -73.459340 -22.924878 -7.407992 -20.519498 -51.772540 6.214886 0.000000 0.000000 0.000000 -0.403100 -1.095889 -4.966283 2.147502 3.558276 -20.935621 -63.929635 16.759493 -4.479144 -25.929420 56.208547 1.549672 0.000000 0.000000 0.000000 
-0.375036 133.978104 1.148338 0.000000 0.000000 0.000000 0.634485 -13.662520 -2.481938 -40.540362 7.123788 14.032869 69.374614 2.392264 -0.744145 14.300589 1.773179 -4.610522 0.000000 0.000000 0.000000 1.893584 1.448548 2.136515 -27.804616 -4.291658 -12.473787 68.568030 -5.098860 3.428961 10.749762 -8.376529 12.282120 0.000000 0.000000 0.000000 0.809825 -3.874266 0.247962 -2.101623 4.706296 -1.821585 -1.992805 0.129627 -0.590845 -1.853828 0.776613 -0.210861 0.000000 0.000000 0.000000 -6.295074 0.468884 -2.110643 -4.993858 0.623424 -0.397142 0.000000 0.000000 0.000000 3.718358 3.008448 2.986060 3.703850 -0.368999 21.039532 -78.765591 -26.657380 -7.816725 -24.771083 -52.493228 3.723080 0.000000 0.000000 0.000000 -0.383299 -1.014459 -4.493669 2.182554 3.717442 -21.023845 -63.290548 19.773165 -2.423509 -27.928254 56.609933 2.605100 0.000000 0.000000 0.000000 
-0.249679 133.838806 0.161953 0.000000 0.000000 0.000000 -0.557389 -15.898245 -3.458590 -41.937184 6.738995 13.119453 70.176471 1.437976 -0.882361 15.667247 0.749559 -5.695057 0.000000 0.000000 0.000000 3.389538 1.346986 2.501540 -25.456571 -4.664817 -11.906049 65.919276 -1.854349 4.286736 9.271907 -5.583010 16.699292 0.000000 0.000000 0.000000 0.525791 -4.490959 -0.392783 1.253733 -0.926048 -2.567955 -4.067708 0.612426 0.527033 -1.861891 1.259474 -0.107817 0.000000 0.000000 0.000000 -6.785545 0.648614 -1.976509 -4.821378 0.602989 -0.392752 0.000000 0.000000 0.000000 3.736838 3.323639 2.979203 3.260325 2.536827 22.613173 -80.630615 -26.977282 -3.566971 -24.675076 -51.474754 4.849295 0.000000 0.000000 0.000000 -0.993518 -0.828082 -4.498809 2.115081 2.795072 -21.598808 -64.049730 20.606288 -5.054459 -28.532195 57.689574 2.705727 0.000000 0.000000 0.000000 
1.046955 135.311600 -2.174562 0.000000 0.000000 0.000000 -2.045453 -16.013124 -3.898885 -43.961003 6.582014 13.041372 71.793785 -0.434063 -1.353535 16.828247 -1.154129 -8.106987 0.000000 0.000000 0.000000 4.948315 1.797567 1.635858 -23.103687 -4.616591 -12.632618 65.085576 1.148264 5.144217 8.086083 -3.023856 20.679333 0.000000 0.000000 0.000000 2.303036 -2.161931 -0.560361 1.367069 -2.462090 -1.747645 -3.354157 2.052777 0.178525 -2.390200 1.730783 0.327109 0.000000 0.000000 0.000000 -6.814123 1.224758 -1.716990 -4.868928 1.001160 -0.145913 0.000000 0.000000 0.000000 4.388927 3.930844 2.974091 3.614850 3.562215 23.575957 -81.206995 -29.902179 -0.244948 -24.040565 -50.449905 7.094544 0.000000 0.000000 0.000000 -1.641967 -0.480862 -3.979406 2.742521 4.764012 -20.477524 -64.574760 22.949847 -5.405523 -31.210737 60.022418 5.631442 0.000000 0.000000 0.000000 
1.582199 135.168335 -3.042267 0.000000 0.000000 0.000000 -3.783063 -15.798859 -4.562191 -46.110447 6.523307 12.727034 70.649496 -1.971341 -1.722568 15.686783 -2.612119 -10.086573 0.000000 0.000000 0.000000 5.203982 -0.045061 2.137872 -22.860486 -5.267308 -12.271566 63.493152 3.082984 5.700202 6.412001 -1.550648 23.135874 0.000000 0.000000 0.000000 1.544898 -5.553899 -0.106675 5.763004 -3.669850 -1.071693 -5.810444 2.437555 0.822487 -2.647218 2.471456 0.702781 0.000000 0.000000 0.000000 -8.790459 1.753142 -1.378637 -5.094058 0.846799 0.011606 0.000000 0.000000 0.000000 4.194294 4.879591 3.059530 4.558681 3.489707 25.887214 -82.826309 -33.344929 3.825355 -23.384915 -51.631842 9.828484 0.000000 0.000000 0.000000 -2.078173 0.170709 -3.676345 3.147722 6.558248 -20.131962 -67.835294 26.199001 -4.602832 -28.105259 53.883526 2.020830 0.000000 0.000000 0.000000 
1.187793 136.262329 -6.508587 0.000000 0.000000 0.000000 -4.871980 -17.135329 -5.748848 -47.138407 6.463548 11.639737 70.140503 -3.396460 -2.611263 14.820822 -3.668903 -12.737511 0.000000 0.000000 0.000000 6.724963 -2.630561 1.425949 -20.883262 -6.046568 -13.288411 63.918618 4.807708 6.032470 6.488412 0.026437 25.130069 0.000000 0.000000 0.000000 2.807021 -4.841415 -0.021867 7.905772 -7.259479 -0.789358 -7.586073 4.615061 1.248138 -2.980013 2.876927 0.703251 0.000000 0.000000 0.000000 -8.168487 2.420136 -1.106114 -4.447079 1.009609 0.106204 0.000000 0.000000 0.000000 5.034040 5.992587 2.720526 5.630750 3.941454 25.852807 -86.738116 -36.307120 4.268882 -25.023313 -54.495166 10.119517 0.000000 0.000000 0.000000 -1.891784 1.006431 -3.441600 4.507010 8.487093 -18.615027 -66.029392 30.175694 -5.007206 -25.318774 53.373099 0.059684 0.000000 0.000000 0.000000 
0.460016 136.408600 -8.283154 0.000000 0.000000 0.000000 -6.233540 -21.080161 -5.650779 -48.362903 5.070249 11.681232 67.702146 -4.343885 -2.354593 12.397750 -4.584423 -13.178175 0.000000 0.000000 0.000000 7.135969 -3.216131 2.401045 -20.098125 -6.519352 -12.159800 60.182497 5.267071 6.244514 3.478596 0.020709 25.587256 0.000000 0.000000 0.000000 2.294679 -7.497032 -0.726443 7.348507 -8.327324 -3.291877 -7.952458 6.107617 2.438688 -3.708376 3.728132 0.923645 0.000000 0.000000 0.000000 -7.441489 3.414235 -0.820987 -4.225394 1.352660 0.232721 0.000000 0.000000 0.000000 6.079221 6.747926 2.705350 6.056771 5.737912 27.129542 -88.725196 -40.297699 5.296089 -27.313284 -61.019489 9.935914 0.000000 0.000000 0.000000 -1.871745 1.948366 -3.127570 4.174559 10.694792 -17.508811 -69.574206 29.089168 -5.735114 -27.772697 50.179241 0.159703 0.000000 0.000000 0.000000 
1.122650 137.349213 -10.599571 0.000000 0.000000 0.000000 -5.716142 -23.258346 -6.579867 -47.567343 5.102220 10.693234 66.773248 -4.873566 -2.768015 11.482996 -4.855826 -14.230604 0.000000 0.000000 0.000000 8.024385 -7.325369 2.213965 -19.207686 -7.738254 -12.929361 59.993834 3.982578 5.280257 3.427057 -0.765377 23.012171 0.000000 0.000000 0.000000 3.585404 -8.268850 -0.247308 7.277044 -12.900435 -3.609814 -8.336913 7.349226 2.656532 -3.787656 4.459363 1.203467 0.000000 0.000000 0.000000 -7.249178 4.101036 -0.529789 -4.025186 1.439316 0.307008 0.000000 0.000000 0.000000 7.045455 7.869920 2.619340 7.008583 7.386932 27.453551 -89.211478 -41.911885 6.046899 -27.461759 -62.205272 10.794331 0.000000 0.000000 0.000000 -2.161723 2.607345 -2.806163 4.545069 12.651710 -16.068261 -73.024565 28.955026 -5.372486 -27.716887 44.809152 -1.841993 0.000000 0.000000 0.000000 
1.482480 138.693817 -12.032619 0.000000 0.000000 0.000000 -5.382377 -24.851269 -7.023524 -46.858953 4.959085 10.062909 64.394723 -4.733113 -3.052777 9.558575 -4.416471 -14.461406 0.000000 0.000000 0.000000 8.633007 -10.605774 2.630875 -18.502410 -8.812319 -12.857740 58.197767 2.050236 4.056044 2.395805 -2.171922 19.435037 0.000000 0.000000 0.000000 4.477605 -8.813995 -0.160188 7.576054 -17.475391 -4.444246 -8.044792 8.812116 3.330963 -3.651317 5.300001 1.538678 0.000000 0.000000 0.000000 -6.742572 4.970555 -0.261028 -3.662021 1.722530 0.329583 0.000000 0.000000 0.000000 7.507530 9.115999 3.007247 6.963285 10.372505 28.777561 -90.394309 -43.338985 8.468781 -29.139178 -63.835658 11.456871 0.000000 0.000000 0.000000 -1.630372 3.458294 -2.509101 5.030679 14.520094 -14.935778 -73.648291 28.467315 -4.627084 -26.534896 42.451822 -2.943193 0.000000 0.000000 0.000000 
2.068042 139.966049 -13.501266 0.000000 0.000000 0.000000 -6.293159 -27.466021 -8.508822 -47.486900 4.777889 8.791012 61.523919 -3.446417 -3.235123 7.360584 -2.805091 -13.576700 0.000000 0.000000 0.000000 8.692499 -12.524928 3.119215 -18.927883 -9.417241 -12.738406 58.931705 0.070482 2.451088 2.865994 -3.289417 15.247643 0.000000 0.000000 0.000000 5.473178 -8.724459 -0.135582 8.776793 -22.954801 -3.008321 -6.658430 10.762356 3.267369 -3.013673 6.348965 1.599953 0.000000 0.000000 0.000000 -6.341161 5.957939 0.091012 -3.437792 2.030602 0.561696 0.000000 0.000000 0.000000 8.018709 10.404071 2.842992 6.725127 13.283102 28.611861 -90.575077 -42.204798 9.666973 -28.770027 -63.168506 12.475693 0.000000 0.000000 0.000000 -1.266395 4.531716 -2.583333 5.787195 16.558100 -13.783024 -74.317185 28.644770 -2.837827 -26.333799 41.671554 -2.656740 0.000000 0.000000 0.000000 
1.970430 139.845245 -15.554165 0.000000 0.000000 0.000000 -5.566893 -30.524600 -9.199487 -45.880819 4.436934 7.660496 58.892206 -1.480722 -3.026429 5.984942 -0.799784 -11.642839 0.000000 0.000000 0.000000 9.705187 -16.567758 2.617647 -17.959940 -10.569536 -14.004159 58.690538 -2.040810 0.985764 2.551472 -4.681018 11.129803 0.000000 0.000000 0.000000 5.989525 -10.726772 -0.008150 9.051827 -26.645869 -3.435512 -5.954593 12.818877 3.204503 -2.706250 7.427905 1.436064 0.000000 0.000000 0.000000 -5.620882 7.027982 0.283429 -3.222639 2.299359 0.703905 0.000000 0.000000 0.000000 8.834506 11.869016 2.589889 6.668296 16.062484 28.120184 -90.120630 -42.290489 10.498572 -29.287875 -64.320759 12.407892 0.000000 0.000000 0.000000 -0.512038 5.767574 -2.793470 6.382249 18.957072 -13.565278 -74.760792 29.042203 -2.120091 -25.781370 40.383555 -3.416253 0.000000 0.000000 0.000000 
1.831077 139.721039 -17.368435 0.000000 0.000000 0.000000 -5.270096 -33.580598 -9.024634 -44.928595 3.552673 7.413792 57.025973 0.704787 -2.519873 5.006863 1.296897 -9.116510 0.000000 0.000000 0.000000 9.617575 -20.543191 3.228478 -18.906860 -11.697841 -14.117672 60.200502 -3.584922 -0.330512 3.234377 -5.464185 7.747907 0.000000 0.000000 0.000000 5.871010 -10.518788 -0.359229 7.465979 -32.290170 -3.936790 -5.563992 14.898567 3.293606 -2.516442 8.411281 1.398280 0.000000 0.000000 0.000000 -5.369467 7.998289 0.616856 -3.174020 2.522887 0.951276 0.000000 0.000000 0.000000 9.872466 13.050283 2.370415 6.998173 17.566926 28.287867 -90.397403 -42.603783 11.586709 -28.717032 -64.879543 14.121674 0.000000 0.000000 0.000000 -0.218203 6.729967 -3.037980 6.829931 20.689770 -12.792089 -75.858608 29.745962 -0.159658 -25.738188 39.036478 -3.511325 0.000000 0.000000 0.000000 
